<?xml version="1.0" encoding="utf-8"?>
<!-- Generator: Adobe Illustrator 16.0.0, SVG Export Plug-In . SVG Version: 6.00 Build 0)  -->
<!DOCTYPE svg PUBLIC "-//W3C//DTD SVG 1.1//EN" "http://www.w3.org/Graphics/SVG/1.1/DTD/svg11.dtd">
<svg version="1.1" id="Calque_1" xmlns="http://www.w3.org/2000/svg" xmlns:xlink="http://www.w3.org/1999/xlink" x="0px" y="0px"
	 width="400px" height="135px" viewBox="0.008 2.5 400 135" enable-background="new 0.008 2.5 400 135" xml:space="preserve">
<g>
	<g>
		<g>
			<g>
				<g>
					<path fill="#796948" d="M0.581,100.945v-1.047c2.562,0,2.766-0.213,2.766-2.674v-18.15c0-2.52-0.203-2.661-2.766-2.661v-1.038
						h9.136c3.804,0,6.27,0.753,8.282,2.874c2.241,2.383,3.155,5.749,3.155,9.642c0,8.715-4.066,13.055-12.191,13.055H0.581
						L0.581,100.945z M6.978,76.662c-0.938,0-1.104,0.234-1.104,1.416v19.707c0,1.587,0.167,1.836,1.209,1.836H8.81
						c5.667,0,9.672-3.122,9.672-11.32c0-3.912-0.619-6.729-2.316-8.941c-1.562-2.015-3.785-2.696-6.588-2.696L6.978,76.662
						L6.978,76.662z"/>
					<path fill="#796948" d="M23.908,91.966c0-6.603,3.144-9.292,7.498-9.292c5.45,0,7.485,4.127,7.485,9.292
						c0,6.354-2.907,9.336-7.485,9.336C26.597,101.302,23.908,98.17,23.908,91.966z M27.422,85.334
						c-1.03,1.289-1.644,3.331-1.644,6.632c0,2.812,0.545,5.115,1.644,6.625c0.896,1.08,2.401,1.786,3.959,1.786
						c1.537,0,3.011-0.706,3.949-1.786c1.096-1.51,1.647-3.813,1.647-6.625c0-3.301-0.634-5.343-1.647-6.632
						c-1.024-1.208-2.433-1.766-3.949-1.766C29.325,83.568,28.119,84.518,27.422,85.334z"/>
					<path fill="#796948" d="M57.18,83.052h3.796v0.712c-1.805,0-1.929,0.092-1.929,1.87v12.7c0,1.757,0.143,1.878,1.929,1.878
						v0.733h-5.525v-0.733c1.729,0,1.812-0.149,1.812-1.878V85.449H57.19l-6.229,15.609h-0.665L43.789,85.42h-0.046v12.913
						c0,1.729,0.062,1.878,1.77,1.878v0.732h-4.653v-0.732c1.771,0,1.868-0.148,1.868-1.878V85.557c0-1.716-0.098-1.793-1.896-1.793
						v-0.712h3.632l6.485,15.339h0.06L57.18,83.052z"/>
					<path fill="#796948" d="M72.373,95.16h-6.396l-0.937,3.23c-0.128,0.526-0.23,0.896-0.23,1.151c0,0.548,0.374,0.669,1.334,0.669
						v0.732h-3.932v-0.732c0.947,0,1.218-0.221,1.569-1.365l5.084-16.173h0.875l5.624,15.847c0.481,1.449,0.762,1.691,1.672,1.691
						v0.732h-4.638v-0.732c1.013,0,1.366-0.148,1.366-0.641c0-0.241-0.078-0.576-0.226-0.98L72.373,95.16z M72.074,94.208
						l-3.048-8.752h-0.059l-2.678,8.752H72.074z"/>
					<path fill="#796948" d="M78.232,100.212c1.946,0,2.103-0.149,2.103-1.878v-12.7c0-1.778-0.156-1.87-2.088-1.87v-0.712h5.962
						v0.712c-1.975,0-2.109,0.092-2.109,1.87v12.7c0,1.729,0.135,1.878,2.109,1.878v0.733h-5.977V100.212z"/>
					<path fill="#796948" d="M89.534,83.052l8.908,15.573h0.046V85.634c0-1.778-0.156-1.87-1.96-1.87v-0.712h4.812v0.712
						c-1.656,0-1.836,0.092-1.836,1.87v15.503h-1.407l-9.355-16.328h-0.05v13.525c0,1.757,0.146,1.878,1.867,1.878v0.733h-4.778
						v-0.733c1.75,0,1.89-0.121,1.89-1.878V85.605c0-1.766-0.121-1.844-1.906-1.844v-0.711L89.534,83.052L89.534,83.052z"/>
					<path fill="#796948" d="M114.315,100.945H103.02v-0.733c1.76,0,1.953-0.149,1.953-1.878v-12.7c0-1.778-0.192-1.87-1.953-1.87
						v-0.712h10.623l0.757,3.749h-0.879c-0.655-2.781-0.891-2.846-2.255-2.846h-3.618c-0.843,0-0.921,0.143-0.921,1.167v6.011h3.451
						c1.116,0,1.287-0.22,1.287-2.468h0.854v5.912h-0.854c0-2.354-0.17-2.49-1.287-2.49h-3.451v6.81
						c0,0.968,0.191,1.096,0.711,1.096h4.539c1.423,0,1.641-0.143,2.295-2.889h0.875L114.315,100.945z"/>
					<path fill="#796948" d="M130.017,91.439v-3.742c0-1.217-0.11-1.346-1.337-1.346v-0.482c1.145-0.192,1.828-0.413,2.571-0.926
						l0.207,0.093v14.13c0,1.188,0.17,1.238,1.273,1.268v0.455c-0.775,0-1.615,0-2.416,0.319l-0.16-0.121l-0.082-1.224h-0.039
						c-0.505,0.568-1.58,1.33-3.137,1.33c-2.028,0-4.366-1.237-4.366-5.685c0-2.513,1.171-5.229,4.628-5.229
						c1.338,0,2.292,0.618,2.825,1.159H130.017L130.017,91.439z M130.017,92.586c-0.607-0.855-1.562-1.559-2.649-1.559
						c-0.862,0-1.839,0.305-2.505,1.195c-0.494,0.703-0.832,1.819-0.832,3.442c0,2.81,1.241,4.788,3.147,4.788
						c1.245,0,2.23-0.805,2.839-1.602V92.586z"/>
					<path fill="#796948" d="M142.834,98.712c-1.027,1.897-2.586,2.481-3.91,2.481c-3.838,0-4.744-2.924-4.744-5.707
						c0-2.561,1.384-5.206,4.45-5.206c3.275,0,4.181,2.923,4.181,5.206h-7.115c0,1.39,0.167,2.578,0.8,3.559
						c0.527,0.875,1.455,1.409,2.505,1.409c1.768,0,2.778-1.062,3.266-2.007L142.834,98.712z M141.32,94.775
						c0-1.7-0.566-3.82-2.714-3.82c-0.688,0-1.463,0.343-2.018,1.011c-0.479,0.62-0.814,1.573-0.893,2.812h5.624V94.775z"/>
					<path fill="#796948" d="M173.922,75.375h5.444v1.038c-2.587,0-2.765,0.144-2.765,2.661v18.15c0,2.504,0.199,2.674,2.765,2.674
						v1.047h-7.887v-1.047c2.442,0,2.586-0.213,2.586-2.674V78.796h-0.104l-8.893,22.312h-0.987l-9.272-22.34h-0.064v18.457
						c0,2.461,0.097,2.674,2.52,2.674v1.047h-6.636v-1.047c2.53,0,2.658-0.213,2.658-2.674v-18.25c0-2.463-0.128-2.562-2.689-2.562
						v-1.038h5.179l9.246,21.92h0.109L173.922,75.375z"/>
					<path fill="#796948" d="M181.742,91.966c0-6.603,3.152-9.292,7.492-9.292c5.464,0,7.492,4.127,7.492,9.292
						c0,6.354-2.899,9.336-7.492,9.336C184.425,101.302,181.742,98.17,181.742,91.966z M185.253,85.334
						c-1.013,1.289-1.646,3.331-1.646,6.632c0,2.812,0.569,5.115,1.646,6.625c0.907,1.08,2.419,1.786,3.963,1.786
						c1.548,0,2.996-0.706,3.949-1.786c1.096-1.51,1.647-3.813,1.647-6.625c0-3.301-0.627-5.343-1.647-6.632
						c-1.004-1.208-2.434-1.766-3.949-1.766C187.146,83.568,185.962,84.518,185.253,85.334z"/>
					<path fill="#796948" d="M202.433,83.052l8.915,15.573h0.063V85.634c0-1.778-0.176-1.87-1.976-1.87v-0.712h4.803v0.712
						c-1.65,0-1.818,0.092-1.818,1.87v15.503h-1.399l-9.365-16.328H201.6v13.525c0,1.757,0.146,1.878,1.875,1.878v0.733h-4.774
						v-0.733c1.732,0,1.881-0.121,1.881-1.878V85.605c0-1.766-0.127-1.844-1.914-1.844v-0.711L202.433,83.052L202.433,83.052z"/>
					<path fill="#796948" d="M223.211,84.02v14.314c0,1.757,0.071,1.878,2.273,1.878v0.733h-6.354v-0.733
						c2.186,0,2.295-0.121,2.295-1.878V84.02h-3.119c-1.42,0-1.595,0.136-2.111,2.996h-0.809l0.539-3.964h12.735l0.562,3.964h-0.812
						c-0.544-2.918-0.726-2.996-2.12-2.996H223.211z"/>
					<path fill="#796948" d="M246.686,83.052h3.796v0.712c-1.812,0-1.932,0.092-1.932,1.87v12.7c0,1.757,0.146,1.878,1.932,1.878
						v0.733h-5.524v-0.733c1.729,0,1.818-0.149,1.818-1.878V85.449h-0.071l-6.223,15.609h-0.68l-6.515-15.639h-0.042v12.913
						c0,1.729,0.083,1.878,1.772,1.878v0.732h-4.669v-0.732c1.785,0,1.875-0.148,1.875-1.878V85.557c0-1.716-0.09-1.793-1.884-1.793
						v-0.712h3.636l6.474,15.339h0.057L246.686,83.052z"/>
					<path fill="#796948" d="M252.491,91.966c0-6.603,3.16-9.292,7.492-9.292c5.471,0,7.506,4.127,7.506,9.292
						c0,6.354-2.912,9.336-7.506,9.336C255.202,101.302,252.491,98.17,252.491,91.966z M256.015,85.334
						c-1.024,1.289-1.651,3.331-1.651,6.632c0,2.812,0.559,5.115,1.651,6.625c0.901,1.08,2.396,1.786,3.949,1.786
						s3.02-0.706,3.956-1.786c1.086-1.51,1.648-3.813,1.648-6.625c0-3.301-0.634-5.343-1.648-6.632
						c-1.017-1.208-2.434-1.766-3.956-1.766C257.892,83.568,256.719,84.518,256.015,85.334z"/>
					<path fill="#796948" d="M281.656,97.003l-0.887,3.942h-11.265v-0.733c1.77,0,1.93-0.149,1.93-1.92V85.634
						c0-1.778-0.16-1.87-1.93-1.87v-0.712h5.653v0.712c-1.834,0-1.956,0.092-1.956,1.87v13.197c0,1.032,0.169,1.16,0.832,1.16h4.359
						c1.406,0,1.646-0.171,2.355-2.988H281.656z"/>
					<path fill="#796948" d="M295.273,97.003l-0.872,3.942h-11.28v-0.733c1.771,0,1.946-0.149,1.946-1.92V85.634
						c0-1.778-0.176-1.87-1.946-1.87v-0.712h5.678v0.712c-1.85,0-1.964,0.092-1.964,1.87v13.197c0,1.032,0.171,1.16,0.833,1.16
						h4.361c1.402,0,1.643-0.171,2.337-2.988H295.273z"/>
					<path fill="#796948" d="M296.683,100.212c1.967,0,2.111-0.149,2.111-1.878v-12.7c0-1.778-0.146-1.87-2.089-1.87v-0.712h5.97
						v0.712c-1.978,0-2.127,0.092-2.127,1.87v12.7c0,1.729,0.149,1.878,2.127,1.878v0.733h-5.992V100.212z"/>
					<path fill="#796948" d="M307.978,83.052l8.933,15.573h0.046V85.634c0-1.778-0.175-1.87-1.971-1.87v-0.712h4.801v0.712
						c-1.653,0-1.82,0.092-1.82,1.87v15.503h-1.4l-9.359-16.328h-0.047v13.525c0,1.757,0.146,1.878,1.864,1.878v0.733h-4.776v-0.733
						c1.746,0,1.882-0.121,1.882-1.878V85.605c0-1.766-0.106-1.844-1.906-1.844v-0.711L307.978,83.052L307.978,83.052z"/>
				</g>
			</g>
		</g>
		<g>
			<path fill="#796948" d="M63.957,123.648c-0.228,0.598-0.354,1.181-0.354,1.537c0,0.668,0.49,0.967,1.571,1.01v0.47h-4.379v-0.47
				c1.061,0,1.687-0.654,2.395-2.547l3.992-10.565l1.164-0.129l3.97,11.313c0.52,1.537,0.875,1.885,1.971,1.928v0.47h-4.838v-0.47
				c0.96-0.043,1.348-0.264,1.348-0.805c0-0.228-0.07-0.604-0.22-1.066l-0.782-2.362h-5.236L63.957,123.648z M67.254,114.712
				l-2.433,6.554h4.718L67.254,114.712z"/>
			<path fill="#796948" d="M82.295,126.793c-0.057-0.448-0.092-1.01-0.092-1.928c-0.732,1.273-1.95,2.027-3.331,2.027
				c-1.203,0-2.124-0.584-2.493-1.58c-0.188-0.506-0.268-1.272-0.268-2.902v-3.096c0-0.961-0.075-1.364-0.277-1.528
				c-0.113-0.114-0.28-0.15-0.641-0.172c-0.238,0-0.238,0-0.334,0v-0.412l2.903-0.185c-0.094,1.742-0.113,2.19-0.113,3.479v1.637
				c0,1.887,0.042,2.398,0.266,3.053c0.221,0.689,0.747,1.045,1.517,1.045c1.03,0,1.944-0.674,2.437-1.812
				c0.277-0.641,0.335-1.046,0.335-2.213v-2.889c0-0.982-0.058-1.346-0.289-1.517c-0.104-0.106-0.295-0.164-0.63-0.186H80.95v-0.412
				l2.903-0.185c-0.058,1.407-0.093,2.64-0.093,3.479v3.544c0,1.871,0.163,2.213,1.143,2.213h0.131v0.412L82.295,126.793z"/>
			<path fill="#796948" d="M93.273,119.357c0.128-0.355,0.224-0.781,0.224-0.996c0-0.482-0.427-0.704-1.44-0.747v-0.412h3.836v0.412
				c-0.986,0.043-1.435,0.471-1.964,1.879l-2.693,7.243h-1.067l-2.963-7.771c-0.398-1.088-0.676-1.331-1.477-1.353v-0.412h4.212
				v0.412c-0.861,0.021-1.242,0.229-1.242,0.641c0,0.171,0.113,0.62,0.263,0.99l2.195,5.99L93.273,119.357z"/>
			<path fill="#796948" d="M98.669,121.387c0.022,1.287,0.129,2.034,0.433,2.803c0.532,1.389,1.461,2.063,2.81,2.063
				c1.327,0,2.341-0.696,3.087-2.112l0.432,0.24c-0.845,1.723-2.114,2.526-3.953,2.526c-2.679,0-4.515-1.985-4.515-4.853
				c0-3.031,1.796-5.109,4.443-5.109c1.704,0,2.995,0.854,3.575,2.369c0.188,0.514,0.267,0.961,0.299,2.071L98.669,121.387
				L98.669,121.387z M103.654,120.874c-0.022-0.989-0.114-1.529-0.359-2.078c-0.417-0.917-1.049-1.388-1.932-1.388
				c-0.896,0-1.647,0.506-2.156,1.467c-0.281,0.533-0.391,1.023-0.498,1.999H103.654z"/>
			<path fill="#796948" d="M109.531,116.996c0.039,0.938,0.056,1.182,0.056,1.58c0,0.127,0,0.334,0,0.597
				c0.62-1.423,1.63-2.228,2.739-2.228c0.805,0,1.423,0.498,1.423,1.16c0,0.471-0.397,0.77-0.996,0.77
				c-0.419,0-0.584-0.114-0.689-0.479c-0.118-0.404-0.229-0.519-0.53-0.519c-0.484,0-1.007,0.412-1.402,1.123
				c-0.337,0.619-0.509,1.388-0.509,2.385v2.938c0,1.758,0.096,1.886,1.353,1.929v0.412h-4.287v-0.412
				c1.249-0.043,1.37-0.192,1.37-1.929v-5.023c0-1.408-0.229-1.687-1.299-1.687v-0.412L109.531,116.996z"/>
			<path fill="#796948" d="M117.25,118.932c0.825-1.443,1.74-1.984,3.294-1.984c1.182,0,1.946,0.349,2.451,1.158
				c0.366,0.543,0.494,1.195,0.494,2.342v3.878c0,1.758,0.089,1.886,1.367,1.929v0.412h-4.251v-0.412
				c0.615-0.021,0.95-0.1,1.1-0.285c0.117-0.148,0.167-0.292,0.188-0.611c0.021-0.213,0.061-0.904,0.061-1.031v-3.771
				c0-0.933-0.1-1.587-0.298-2.021c-0.303-0.653-0.861-0.988-1.65-0.988c-0.883,0-1.594,0.406-2.113,1.252
				c-0.396,0.612-0.641,1.522-0.641,2.291v3.237c0,1.758,0.097,1.886,1.37,1.929v0.412h-4.271v-0.412
				c1.252-0.043,1.37-0.192,1.37-1.929v-5.023c0-1.408-0.231-1.687-1.299-1.687v-0.412l2.832-0.206v1.934H117.25z"/>
			<path fill="#796948" d="M128.976,116.996c-0.051,1.089-0.111,2.725-0.111,3.5v3.828c0,1.736,0.093,1.886,1.344,1.929v0.412
				h-4.269v-0.412c1.288-0.043,1.384-0.192,1.384-1.929v-5.01c0-0.924-0.074-1.364-0.284-1.528c-0.142-0.129-0.44-0.172-1.1-0.172
				v-0.412L128.976,116.996z M128.04,113.025c0.576,0,1.045,0.471,1.045,1.047c0,0.604-0.47,1.066-1.045,1.066
				c-0.598,0-1.066-0.463-1.066-1.066C126.973,113.496,127.442,113.025,128.04,113.025z"/>
			<path fill="#796948" d="M133.454,121.387c0.021,1.287,0.132,2.034,0.43,2.803c0.538,1.389,1.466,2.063,2.811,2.063
				c1.327,0,2.337-0.696,3.084-2.112l0.438,0.24c-0.843,1.723-2.112,2.526-3.947,2.526c-2.683,0-4.519-1.985-4.519-4.853
				c0-3.031,1.796-5.109,4.437-5.109c1.705,0,2.996,0.854,3.583,2.369c0.182,0.514,0.26,0.961,0.292,2.071L133.454,121.387
				L133.454,121.387z M138.434,120.874c-0.019-0.989-0.11-1.529-0.358-2.078c-0.41-0.917-1.04-1.388-1.929-1.388
				c-0.894,0-1.647,0.506-2.153,1.467c-0.284,0.533-0.388,1.023-0.498,1.999H138.434z"/>
			<path fill="#796948" d="M144.318,116.996c0.039,0.938,0.053,1.182,0.053,1.58c0,0.127,0,0.334,0,0.597
				c0.615-1.423,1.633-2.228,2.74-2.228c0.8,0,1.419,0.498,1.419,1.16c0,0.471-0.392,0.77-1,0.77c-0.41,0-0.569-0.114-0.688-0.479
				c-0.112-0.404-0.224-0.519-0.519-0.519c-0.491,0-1.014,0.412-1.412,1.123c-0.339,0.619-0.502,1.388-0.502,2.385v2.938
				c0,1.758,0.089,1.886,1.348,1.929v0.412h-4.294v-0.412c1.261-0.043,1.377-0.192,1.377-1.929v-5.023
				c0-1.408-0.23-1.687-1.298-1.687v-0.412L144.318,116.996z"/>
			<path fill="#796948" d="M164.154,120.938v0.781h-9.366v-0.781H164.154z"/>
			<path fill="#796948" d="M173.421,123.484c0,1.494,0.058,1.906,0.268,2.205c0.225,0.336,0.623,0.483,1.367,0.506v0.47h-4.124
				v-0.47c0.712,0,1.104-0.15,1.352-0.506c0.26-0.354,0.369-1.088,0.369-2.532v-7.55c0-1.834-0.128-2.021-1.529-2.076v-0.448h3.316
				l7.812,11.198v-7.698c0-1.687-0.062-2.228-0.28-2.524c-0.246-0.334-0.662-0.484-1.428-0.526v-0.448h4.18v0.448
				c-1.404,0.085-1.706,0.583-1.706,2.796v10.395h-1.067l-8.528-12.271V123.484z"/>
			<path fill="#796948" d="M187.921,121.387c0.021,1.287,0.136,2.034,0.431,2.803c0.541,1.389,1.462,2.063,2.813,2.063
				c1.33,0,2.336-0.696,3.083-2.112l0.43,0.24c-0.834,1.723-2.115,2.526-3.948,2.526c-2.674,0-4.515-1.985-4.515-4.853
				c0-3.031,1.8-5.109,4.44-5.109c1.704,0,2.998,0.854,3.575,2.369c0.188,0.514,0.267,0.961,0.299,2.071L187.921,121.387
				L187.921,121.387z M192.906,120.874c-0.018-0.989-0.11-1.529-0.353-2.078c-0.418-0.917-1.054-1.388-1.937-1.388
				c-0.896,0-1.643,0.506-2.148,1.467c-0.284,0.533-0.395,1.023-0.502,1.999H192.906z"/>
			<path fill="#796948" d="M203.176,126.793c-0.057-0.448-0.097-1.01-0.097-1.928c-0.735,1.273-1.945,2.027-3.339,2.027
				c-1.195,0-2.118-0.584-2.49-1.58c-0.189-0.506-0.264-1.272-0.264-2.902v-3.096c0-0.961-0.071-1.364-0.28-1.528
				c-0.106-0.114-0.278-0.15-0.638-0.172c-0.242,0-0.242,0-0.334,0v-0.412l2.907-0.185c-0.096,1.742-0.11,2.19-0.11,3.479v1.637
				c0,1.887,0.029,2.398,0.256,3.053c0.225,0.689,0.754,1.045,1.517,1.045c1.034,0,1.949-0.674,2.439-1.812
				c0.277-0.641,0.338-1.046,0.338-2.213v-2.889c0-0.982-0.061-1.346-0.28-1.517c-0.114-0.106-0.3-0.164-0.638-0.186h-0.337v-0.412
				l2.901-0.185c-0.058,1.407-0.093,2.64-0.093,3.479v3.544c0,1.871,0.163,2.213,1.141,2.213h0.13v0.412L203.176,126.793z"/>
			<path fill="#796948" d="M215.719,124.268c-0.766,1.735-2.055,2.641-3.861,2.641c-2.634,0-4.469-1.985-4.469-4.854
				c0-3.053,1.85-5.107,4.589-5.107c1.081,0,2.096,0.349,2.773,0.945c0.48,0.463,0.801,1.019,0.801,1.487
				c0,0.349-0.357,0.576-0.938,0.576c-0.264,0-0.501-0.071-0.637-0.192c-0.114-0.105-0.114-0.143-0.144-0.633
				c-0.117-1.025-0.882-1.723-1.977-1.723c-1.693,0-2.711,1.58-2.711,4.275c0,2.848,1.178,4.59,3.131,4.59
				c1.348,0,2.38-0.77,3.017-2.276L215.719,124.268z"/>
			<path fill="#796948" d="M219.654,118.945c0.882-1.444,1.803-2,3.336-2c1.366,0,2.289,0.463,2.736,1.346
				c0.22,0.47,0.33,1.252,0.33,2.284v3.749c0,1.736,0.097,1.886,1.353,1.929v0.412h-4.255v-0.412
				c1.272-0.043,1.372-0.171,1.372-1.929v-3.771c0-0.953-0.1-1.644-0.306-2.021c-0.298-0.599-0.84-0.896-1.646-0.896
				c-0.75,0-1.397,0.257-1.854,0.728c-0.37,0.397-0.688,0.953-0.88,1.535c-0.128,0.42-0.188,0.791-0.188,1.41v3.017
				c0,1.758,0.091,1.886,1.351,1.929v0.412h-4.255v-0.412c1.274-0.043,1.367-0.171,1.367-1.929v-9.13
				c0-1.578-0.075-1.678-1.367-1.698v-0.413l2.995-0.148c-0.074,1.422-0.091,2.112-0.091,3.741L219.654,118.945L219.654,118.945z"/>
			<path fill="#796948" d="M237.486,126.622c-0.729,0.114-1.555,0.192-1.931,0.192c-0.561,0-0.709-0.307-0.79-1.559
				c-0.301,0.342-0.537,0.549-0.911,0.805c-0.821,0.604-1.482,0.811-2.434,0.811c-0.83,0-1.449-0.191-1.914-0.583
				c-0.51-0.448-0.83-1.195-0.83-1.979c0-1.485,0.944-2.439,2.753-2.853c0.983-0.228,1.978-0.363,3.336-0.448v-1.181
				c0-0.861-0.071-1.31-0.258-1.708c-0.243-0.484-0.768-0.727-1.536-0.727c-1.236,0-1.87,0.557-1.944,1.723
				c-0.021,0.392-0.055,0.525-0.21,0.634c-0.13,0.101-0.37,0.147-0.655,0.147c-0.638,0-0.915-0.17-0.915-0.554
				c0-0.684,0.487-1.353,1.271-1.801c0.713-0.397,1.63-0.599,2.731-0.599c1.207,0,2.064,0.277,2.514,0.818
				c0.379,0.471,0.548,1.088,0.548,2.12c0,0.058,0,0.058-0.043,1.886l-0.016,1.778l-0.021,0.868c0,0.775,0.093,1.458,0.214,1.607
				c0.104,0.148,0.327,0.205,1.042,0.205L237.486,126.622L237.486,126.622z M234.766,121.436c-1.658,0.149-2.395,0.307-3.143,0.676
				c-0.822,0.393-1.249,1.146-1.249,2.136c0,1.181,0.631,1.983,1.566,1.983c0.96,0,1.925-0.555,2.396-1.364
				c0.299-0.526,0.429-1.316,0.429-2.548L234.766,121.436L234.766,121.436z M231.212,116.043l-0.523-0.312l1.444-2.435h1.687
				l1.456,2.435l-0.522,0.312l-1.779-1.665L231.212,116.043z"/>
			<path fill="#796948" d="M241.57,123.997c0,1.11,0.058,1.601,0.247,1.856c0.18,0.271,0.481,0.398,0.916,0.398
				c0.413,0,0.77-0.1,1.178-0.342l0.171,0.49c-0.619,0.319-1.221,0.47-1.895,0.47c-0.92,0-1.617-0.319-1.931-0.919
				c-0.206-0.375-0.267-0.788-0.267-2.176v-6.069h-1.178v-0.427c1.105-0.1,1.668-0.825,1.945-2.59l0.868-0.241
				c-0.043,0.804-0.058,1.516-0.058,2.753h2.252v0.505h-2.252v6.291H241.57z"/>
			<path fill="#796948" d="M247.007,121.387c0.012,1.287,0.127,2.034,0.428,2.803c0.54,1.389,1.46,2.063,2.806,2.063
				c1.336,0,2.348-0.696,3.096-2.112l0.429,0.24c-0.837,1.723-2.118,2.526-3.949,2.526c-2.681,0-4.517-1.985-4.517-4.853
				c0-3.031,1.803-5.109,4.438-5.109c1.708,0,2.999,0.854,3.575,2.369c0.188,0.514,0.271,0.961,0.31,2.071L247.007,121.387
				L247.007,121.387z M251.986,120.874c-0.019-0.989-0.109-1.529-0.359-2.078c-0.41-0.917-1.039-1.388-1.925-1.388
				c-0.903,0-1.653,0.506-2.155,1.467c-0.279,0.533-0.394,1.023-0.509,1.999H251.986z"/>
			<path fill="#796948" d="M255.096,126.253c1.233-0.043,1.326-0.192,1.326-1.929v-9.129c0-0.91-0.07-1.366-0.276-1.529
				c-0.129-0.114-0.413-0.148-1.05-0.17v-0.413l2.992-0.149c-0.07,1.26-0.11,2.754-0.11,3.742v7.648
				c0,1.736,0.095,1.886,1.348,1.929v0.412h-4.229L255.096,126.253L255.096,126.253z"/>
		</g>
	</g>
	<g>
		<g>
			<polygon fill="#796948" points="339.798,22.191 328.969,14.379 339.798,6.603 350.591,14.379 			"/>
			<polygon fill="#796948" points="361.408,22.191 350.591,14.379 361.408,6.603 372.241,14.379 			"/>
			<polygon fill="#796948" points="383.052,22.191 372.241,14.379 383.052,6.603 393.877,14.379 			"/>
		</g>
		<path fill="#796948" d="M379.541,97.139l-38.011-65.84h-12.985l-9.843-17.047h-0.804l68.836,119.323h0.812l-17.058-29.562
			C373.337,102.254,376.489,99.936,379.541,97.139z M354.173,31.298l33.132,57.38c2.119-2.796,4.058-5.826,5.562-9.021
			c0.401-0.798,0.735-1.63,1.081-2.44l-26.526-45.918L354.173,31.298L354.173,31.298z M394.55,31.298h-14.476l17.378,30.082
			C398.469,49.256,396.382,37.311,394.55,31.298z"/>
	</g>
</g>
</svg>
