<?xml version="1.0" encoding="utf-8"?>
<!-- Generator: Adobe Illustrator 23.0.2, SVG Export Plug-In . SVG Version: 6.00 Build 0)  -->
<svg version="1.1" id="Calque_1" xmlns="http://www.w3.org/2000/svg" xmlns:xlink="http://www.w3.org/1999/xlink" x="0px" y="0px"
	 viewBox="0 0 860 211.4" style="enable-background:new 0 0 860 211.4;" xml:space="preserve">
<style type="text/css">
	.st0{fill:#CCBE9F;stroke:#CCBE9F;stroke-miterlimit:10;}
</style>
<title>Fichier 1</title>
<g>
	<g id="Calque_1-2">
		<g id="logo_bi-chrome">
			<path class="st0" d="M108.7,137.2c-6,5.6-18.4,16.9-43,16.9C25,154.1,0,121.1,0,78.1C0,31.2,30.4,0,71.9,0
				c38.6,0,57.4,24.8,64.3,33.7l-27.7,16.7c-5.2-7.9-13.6-20.7-33.9-20.7c-27.7,0-38.2,22.9-38.2,47.3c0,16.5,4.5,30,11.6,37.2
				c5.6,6,15.5,10.5,26.7,10.5c7.1,0.1,14-1.9,20-5.6c9.5-6.2,10.8-14,11.8-21.7H73.8V69.8h63.4v81h-28.5V137.2z"/>
			<path class="st0" d="M238.7,5l53.7,145.9h-38.9l-7.2-23.3h-53.7l-7.2,23.3h-38.9L200.6,5H238.7z M219,39.7
				c-1.9,7.4-3.9,15.1-6,22.5c-3.1,11-8.7,28.1-12,39h37L219,39.7z"/>
			<path class="st0" d="M305.2,5H423v28.5l-79.5,88.6h79.1v28.7H298.4v-27.3l80.8-90.1h-74L305.2,5z"/>
			<path class="st0" d="M443,5h117.8v28.5l-79.5,88.6h79.1v28.7H436.2v-27.3L517,33.5h-74V5z"/>
			<path class="st0" d="M656.3,5L710,150.8h-38.9l-7.2-23.3h-53.7l-7.2,23.3h-38.9L618.2,5H656.3z M636.6,39.7
				c-1.9,7.4-3.9,15.1-6,22.5c-3.1,11-8.7,28.1-12,39h37L636.6,39.7z"/>
			<path class="st0" d="M724.5,5h65.7c15.3,0.2,34.3,0.4,47.7,14.9c6.8,7.6,11.6,19.2,11.6,32.4c0,29.3-20,36.6-30,40.3l33.7,58.3
				h-40.2L784,98.8h-23v52.1h-36.5V5z M761,32.2v39.5h30.2c5.2-0.2,21.9-0.6,21.9-20c0-18.6-13.4-19.2-21.1-19.4L761,32.2z"/>
			<path class="st0" d="M7.8,164.3H859c0.6,0,1,0.5,1,1v0c0,0.6-0.5,1-1,1H7.8c-0.6,0-1-0.5-1-1v0C6.8,164.7,7.3,164.3,7.8,164.3z"
				/>
			<path class="st0" d="M25.3,202.6l0.7,2.6h0.1l0.7-2.6l8.2-23.4h4.6L27.9,211h-3.7l-11.8-31.7h4.7L25.3,202.6z"/>
			<path class="st0" d="M88.7,211h-4.3v-31.7h4.3L88.7,211z"/>
			<path class="st0" d="M160.5,211h-4.3L141,186.8l-0.1,0.1V211h-4.3v-31.7h4.3l15.2,24.2h0.1v-24.2h4.3V211z"/>
			<path class="st0" d="M224.9,203c0-1.4-0.5-2.7-1.5-3.6c-1.6-1.2-3.5-2.1-5.4-2.5c-2.8-0.6-5.3-1.8-7.5-3.5
				c-1.7-1.4-2.7-3.6-2.7-5.9c0-2.4,1-4.7,2.9-6.2c2.1-1.7,4.8-2.6,7.6-2.5c2.9-0.2,5.8,0.9,8,2.8c1.9,1.7,2.9,4.1,2.9,6.6l-0.1,0.1
				h-4.1c0-1.7-0.7-3.3-1.9-4.4c-1.3-1.2-3-1.8-4.8-1.8c-1.7-0.1-3.3,0.4-4.6,1.4c-1.1,1-1.7,2.4-1.6,3.8c0,1.4,0.6,2.6,1.8,3.4
				c1.7,1.2,3.7,2,5.7,2.4c2.7,0.6,5.2,1.8,7.3,3.6c1.6,1.6,2.6,3.7,2.5,6c0.1,2.4-1.1,4.7-3,6.2c-2.3,1.6-5.1,2.5-7.9,2.3
				c-2.9,0.1-5.8-0.8-8.1-2.6c-2.3-1.5-3.5-4.1-3.4-6.9l0.1-0.1h4.1c-0.1,1.8,0.8,3.6,2.3,4.6c1.5,1.1,3.3,1.6,5.1,1.6
				c1.7,0.1,3.4-0.4,4.8-1.4C224.3,205.9,225,204.5,224.9,203z"/>
			<path class="st0" d="M326.5,211v-31.7h10c7.2-0.4,13.3,5.1,13.7,12.2c0,0.5,0,1,0,1.5v4.3c0.4,7.2-5.1,13.3-12.3,13.7
				c-0.5,0-1,0-1.5,0H326.5z M330.8,182.7v24.9h5.7c2.6,0.1,5.2-0.9,6.9-2.9c1.7-2.1,2.6-4.7,2.5-7.4v-4.4c0.1-2.7-0.8-5.3-2.5-7.4
				c-1.8-2-4.3-3-6.9-2.9L330.8,182.7z"/>
			<path class="st0" d="M400.8,183.5l-2.2,7.5h-2.1v-7.5v-4.3h4.3L400.8,183.5z"/>
			<path class="st0" d="M472.2,197.9c0.1,3.6-1.2,7-3.6,9.6c-2.4,2.6-5.8,3.9-9.3,3.8c-3.4,0.1-6.7-1.3-9-3.8
				c-2.3-2.7-3.6-6.1-3.5-9.6v-5.6c-0.1-3.5,1.1-7,3.5-9.6c2.3-2.5,5.6-4,9-3.9c3.5-0.1,6.9,1.3,9.3,3.8c2.4,2.6,3.7,6.1,3.6,9.6
				V197.9z M468,192.3c0.1-2.6-0.7-5.1-2.4-7.1c-1.6-1.9-3.9-2.9-6.3-2.8c-2.3-0.1-4.6,0.9-6,2.8c-1.6,2-2.3,4.6-2.2,7.1v5.7
				c-0.1,2.6,0.7,5.1,2.2,7.2c1.4,1.8,3.7,2.9,6,2.8c2.4,0.1,4.8-0.9,6.3-2.8c1.6-2,2.4-4.6,2.3-7.2V192.3z"/>
			<path class="st0" d="M522.8,197.2V211h-4.3v-31.7h10.8c3.5,0,6.1,0.8,7.9,2.3c1.9,1.7,2.9,4.2,2.7,6.7c0,1.5-0.4,3-1.3,4.2
				c-0.9,1.3-2.2,2.3-3.7,2.9c1.5,0.4,2.9,1.4,3.8,2.8c0.8,1.4,1.2,3.1,1.1,4.7v3c0,0.9,0.1,1.8,0.3,2.6c0.2,0.7,0.6,1.4,1.1,1.9
				v0.6H537c-0.6-0.6-1-1.3-1.1-2.2c-0.2-1-0.2-2-0.2-3v-2.9c0.1-1.5-0.5-3-1.5-4.1c-1.1-1.1-2.5-1.6-4-1.6L522.8,197.2z
				 M522.8,193.9h6.1c2.4,0,4.2-0.5,5.2-1.4c1.1-1.1,1.7-2.6,1.6-4.2c0.1-1.5-0.5-3-1.5-4.1c-1.4-1.1-3.1-1.6-4.8-1.5h-6.5V193.9z"
				/>
			<path class="st0" d="M591.7,211h-4.3v-31.7h4.3V211z"/>
			<path class="st0" d="M662.4,206.7c-1,1.4-2.4,2.5-3.9,3.2c-2.3,1.1-4.7,1.6-7.2,1.5c-3.4,0.1-6.7-1.2-9.1-3.6
				c-2.4-2.5-3.7-5.9-3.6-9.4v-6.5c-0.1-3.5,1.1-6.8,3.5-9.4c2.3-2.4,5.6-3.8,8.9-3.6c3.5,0,6.3,0.9,8.3,2.8c2,1.8,3.1,4.4,3,7.2
				v0.1h-4.2c0.1-1.8-0.6-3.5-1.9-4.8c-1.4-1.3-3.4-2-5.3-1.9c-2.3-0.1-4.4,0.9-5.8,2.7c-1.5,2-2.3,4.4-2.2,6.9v6.6
				c-0.1,2.5,0.7,5,2.3,6.9c1.5,1.8,3.7,2.8,6,2.7c1.5,0.1,3-0.2,4.4-0.7c0.9-0.4,1.8-1,2.5-1.7v-7.1h-7.2v-3.4h11.5L662.4,206.7z"
				/>
			<path class="st0" d="M714.6,211h-4.3v-31.7h4.3V211z"/>
			<path class="st0" d="M786.5,211h-4.3L767,186.8l-0.1,0.1V211h-4.3v-31.7h4.3l15.2,24.2h0.1v-24.2h4.3L786.5,211z"/>
			<path class="st0" d="M851.3,196.3h-13v11.3h15.2v3.4H834v-31.7h19.3v3.4h-15v10.2h13L851.3,196.3z"/>
		</g>
	</g>
</g>
</svg>
