<svg xmlns="http://www.w3.org/2000/svg" viewBox="0 0 860 211.4"><defs><style>.cls-1{fill:#211516;}</style></defs><title>Fichier 1</title><g id="Calque_2" data-name="Calque 2"><g id="Calque_1-2" data-name="Calque 1"><g id="logo_bi-chrome" data-name="logo bi-chrome"><path class="cls-1" d="M108.68,137.2c-6,5.58-18.38,16.94-43,16.94C25,154.14,0,121.08,0,78.1,0,31.2,30.37,0,71.91,0c38.63,0,57.44,24.79,64.26,33.68L108.48,50.42c-5.17-7.86-13.64-20.67-33.89-20.67-27.69,0-38.22,22.94-38.22,47.32,0,16.53,4.54,30,11.57,37.19,5.58,6,15.49,10.54,26.65,10.54a37.23,37.23,0,0,0,20-5.58c9.51-6.2,10.75-14,11.78-21.69H73.77V69.84H137.2v81H108.68Z"/><path class="cls-1" d="M238.66,5l53.72,145.87H253.53l-7.23-23.34H192.58l-7.23,23.34H146.5L200.64,5ZM219,39.67c-1.86,7.44-3.93,15.08-6,22.52-3.1,11-8.68,28.1-12,39.05h37Z"/><path class="cls-1" d="M305.19,5H423V33.47l-79.55,88.64h79.14v28.72H298.38V123.56l80.79-90.09h-74Z"/><path class="cls-1" d="M443,5H560.79V33.47l-79.55,88.64h79.14v28.72H436.2V123.56L517,33.47H443Z"/><path class="cls-1" d="M656.26,5,710,150.83H671.13l-7.23-23.34H610.18L603,150.83H564.1L618.24,5ZM636.63,39.67c-1.86,7.44-3.93,15.08-6,22.52-3.1,11-8.68,28.1-12,39.05h37Z"/><path class="cls-1" d="M724.45,5h65.7c15.29.2,34.3.41,47.73,14.88,6.82,7.64,11.57,19.21,11.57,32.44,0,29.34-20,36.57-30,40.29l33.68,58.26H812.88L784,98.77H761v52.06H724.45ZM761,32.23V71.7h30.17c5.16-.21,21.9-.62,21.9-20.05,0-18.59-13.43-19.21-21.08-19.42Z"/><rect class="cls-1" x="6.83" y="164.26" width="853.17" height="2.05" rx="1.02"/><path class="cls-1" d="M25.27,202.64l.72,2.63h.13l.71-2.63L35,179.28h4.63L27.88,211H24.2L12.44,179.28h4.65Z"/><path class="cls-1" d="M88.65,211H84.34V179.28h4.31Z"/><path class="cls-1" d="M160.53,211h-4.28L141,186.76l-.13.05V211h-4.28V179.28h4.28l15.25,24.16.13,0V179.28h4.28Z"/><path class="cls-1" d="M224.91,203a4.82,4.82,0,0,0-1.54-3.62,12.92,12.92,0,0,0-5.44-2.47,18.2,18.2,0,0,1-7.54-3.53,7.4,7.4,0,0,1-2.71-5.85,7.83,7.83,0,0,1,2.92-6.2,11.29,11.29,0,0,1,7.57-2.48,11.07,11.07,0,0,1,8,2.84,8.59,8.59,0,0,1,2.88,6.62l-.07.14h-4.08A5.85,5.85,0,0,0,223,184a6.77,6.77,0,0,0-4.82-1.76,6.59,6.59,0,0,0-4.6,1.45,4.87,4.87,0,0,0-1.6,3.79,4.21,4.21,0,0,0,1.75,3.44,16.22,16.22,0,0,0,5.69,2.43,16.16,16.16,0,0,1,7.28,3.65,8,8,0,0,1,2.5,6,7.41,7.41,0,0,1-3,6.16,12.51,12.51,0,0,1-7.86,2.32,13.36,13.36,0,0,1-8.1-2.56,7.84,7.84,0,0,1-3.41-6.87l.05-.14H211a5.31,5.31,0,0,0,2.26,4.6,8.56,8.56,0,0,0,5.11,1.62,7.65,7.65,0,0,0,4.82-1.37A4.44,4.44,0,0,0,224.91,203Z"/><path class="cls-1" d="M326.5,211V179.28h10A13,13,0,0,1,350.21,193v4.33A13,13,0,0,1,336.46,211Zm4.29-28.3V207.6h5.67a8.74,8.74,0,0,0,6.93-2.9,10.82,10.82,0,0,0,2.54-7.41v-4.37a10.8,10.8,0,0,0-2.54-7.38,8.76,8.76,0,0,0-6.93-2.89Z"/><path class="cls-1" d="M400.84,183.48,398.65,191h-2.11l0-7.46v-4.26h4.28Z"/><path class="cls-1" d="M472.25,197.94a13.54,13.54,0,0,1-3.6,9.64,12.25,12.25,0,0,1-9.34,3.82,11.6,11.6,0,0,1-9-3.82,13.85,13.85,0,0,1-3.47-9.64v-5.63a13.88,13.88,0,0,1,3.47-9.64,11.59,11.59,0,0,1,9-3.85,12.23,12.23,0,0,1,9.34,3.84,13.56,13.56,0,0,1,3.6,9.65ZM468,192.27a10.67,10.67,0,0,0-2.35-7.14,7.82,7.82,0,0,0-6.3-2.78,7.25,7.25,0,0,0-6,2.78,11,11,0,0,0-2.23,7.14v5.67a11.12,11.12,0,0,0,2.23,7.18,7.25,7.25,0,0,0,6,2.78,7.84,7.84,0,0,0,6.32-2.77,10.83,10.83,0,0,0,2.33-7.19Z"/><path class="cls-1" d="M522.79,197.22V211h-4.28V179.3h10.83c3.47,0,6.11.77,7.94,2.31a8.29,8.29,0,0,1,2.74,6.7,7.25,7.25,0,0,1-1.27,4.24,8.68,8.68,0,0,1-3.71,2.87,6.45,6.45,0,0,1,3.75,2.75,9,9,0,0,1,1.14,4.71v3a9.8,9.8,0,0,0,.33,2.65,4,4,0,0,0,1.13,1.92V211H537a3.59,3.59,0,0,1-1.08-2.18,17.92,17.92,0,0,1-.24-3v-2.89a5.71,5.71,0,0,0-1.5-4.13,5.35,5.35,0,0,0-4-1.57Zm0-3.37h6.11c2.43,0,4.17-.46,5.24-1.38a5.27,5.27,0,0,0,1.59-4.21,5.41,5.41,0,0,0-1.55-4.14,6.85,6.85,0,0,0-4.84-1.47h-6.55Z"/><path class="cls-1" d="M591.68,211h-4.31V179.28h4.31Z"/><path class="cls-1" d="M662.39,206.68a10.17,10.17,0,0,1-3.93,3.24,15.41,15.41,0,0,1-7.25,1.48,12.21,12.21,0,0,1-9.07-3.63,12.76,12.76,0,0,1-3.59-9.39v-6.53a13,13,0,0,1,3.46-9.39,11.71,11.71,0,0,1,8.91-3.64q5.3,0,8.35,2.82a9,9,0,0,1,3,7.17l0,.13H658.1a6.62,6.62,0,0,0-1.87-4.82,7.08,7.08,0,0,0-5.31-1.92,7.18,7.18,0,0,0-5.85,2.71,10.56,10.56,0,0,0-2.22,6.9v6.57a10.29,10.29,0,0,0,2.35,6.94,7.58,7.58,0,0,0,6,2.73,11.23,11.23,0,0,0,4.44-.72,6.53,6.53,0,0,0,2.45-1.73v-7.14h-7.18v-3.35h11.47Z"/><path class="cls-1" d="M714.61,211H710.3V179.28h4.31Z"/><path class="cls-1" d="M786.49,211H782.2L767,186.76l-.13.05V211h-4.29V179.28h4.29l15.24,24.16.13,0V179.28h4.29Z"/><path class="cls-1" d="M851.28,196.27h-13V207.6H853.5V211H834V179.28h19.27v3.37h-15V192.9h13Z"/></g></g></g></svg>